<?xml version="1.0" encoding="UTF-8"?>
<!DOCTYPE svg PUBLIC "-//W3C//DTD SVG 1.1//EN" "http://www.w3.org/Graphics/SVG/1.1/DTD/svg11.dtd">
<!-- Creator: CorelDRAW 2020 (64-Bit) -->
<svg xmlns="http://www.w3.org/2000/svg" xml:space="preserve" width="181.227mm" height="181.227mm" version="1.1" style="shape-rendering:geometricPrecision; text-rendering:geometricPrecision; image-rendering:optimizeQuality; fill-rule:evenodd; clip-rule:evenodd"
viewBox="0 0 5423.14 5423.14"
 xmlns:xlink="http://www.w3.org/1999/xlink"
 xmlns:xodm="http://www.corel.com/coreldraw/odm/2003">
 <defs>
  <style type="text/css">
   <![CDATA[
    .fil1 {fill:#FDFEFE}
    .fil0 {fill:url(#id0)}
   ]]>
  </style>
  <linearGradient id="id0" gradientUnits="userSpaceOnUse" x1="-0" y1="2711.57" x2="5423.14" y2="2711.57">
   <stop offset="0" style="stop-opacity:1; stop-color:#00F190"/>
   <stop offset="1" style="stop-opacity:1; stop-color:#00A1FC"/>
  </linearGradient>
 </defs>
 <g id="Capa_x0020_1">
  <metadata id="CorelCorpID_0Corel-Layer"/>
  <circle class="fil0" cx="2711.57" cy="2711.57" r="2711.57"/>
  <path class="fil1" d="M2282.54 2055.65c-37.86,46.1 -71.46,65.63 -113.41,115.2 -199.14,235.3 -235.72,604.91 -80.79,875.67 82.57,144.29 106.62,144.14 195.65,234.64 19.53,19.85 5.01,0.86 17.01,21.05 -234.82,73.26 -460.6,267.71 -605.31,456.27 -156.79,204.3 -256.86,473.14 -265.53,801.96l243.51 -0.11c12.56,-372.18 136.35,-566.31 309.01,-766.49 30.12,-34.92 98.78,-90.42 143.69,-123.84 169.27,-125.96 377.8,-198.89 601.08,-211.32 340.81,-17.08 580.99,104.08 816.58,306.9 38.85,33.44 89.85,99.97 126.89,148.89 139.18,183.85 202.16,400.66 210.36,645.31l242.93 0.7c0.55,-108.12 -12,-207.68 -35.26,-309.64 -22.24,-97.48 -62.05,-173.56 -86.34,-257.8 -19.13,-22.09 -44.75,-82.78 -62.19,-112.77 -50.66,-87.1 -86.91,-130.85 -149.61,-207.55 -104.28,-127.56 -350.25,-312.41 -536.86,-370.44l30.51 -32.8c9.29,-8.1 20.54,-18.39 29.24,-26.79 297.05,-286.68 334.21,-704.81 89.35,-1048.23 -33.68,-47.23 -103.86,-116.11 -150.14,-150.56 -17.84,-13.28 -24.22,-14.89 -29.17,-27.15 -122.97,-45.84 -210.88,-148.85 -495.09,-131.8 -267.42,16.04 -340.68,119.05 -446.09,170.71zm396.33 79.96c-264.41,47.57 -493.54,305.53 -433.21,631.76 48.76,263.68 311.46,499.3 639.44,432.22 260.38,-53.26 487.01,-305.73 427.85,-631.3 -48.53,-267.07 -307.44,-491.45 -634.09,-432.68z"/>
  <path class="fil1" d="M1180.69 1262.17c-28.93,35.22 -54.6,50.14 -86.64,88.01 -152.14,179.76 -180.08,462.14 -61.72,668.99 63.08,110.23 81.46,110.12 149.47,179.26 14.92,15.16 3.83,0.66 12.99,16.08 -179.4,55.97 -351.89,204.53 -462.44,348.57 -119.79,156.08 -196.23,361.47 -202.86,612.68l186.03 -0.08c9.6,-284.34 104.16,-432.65 236.07,-585.58 23.01,-26.68 75.47,-69.08 109.77,-94.61 129.32,-96.23 288.63,-151.95 459.21,-161.45 258.9,-12.97 441.78,78.48 620.79,231.84 12.96,-65.48 37.6,-127.14 71.86,-183.03 -88.33,-71.23 -198.75,-139.79 -290.42,-168.3l23.31 -25.06c7.1,-6.19 15.69,-14.05 22.34,-20.47 226.93,-219.02 255.33,-538.46 68.26,-800.82 -25.73,-36.09 -79.34,-88.71 -114.7,-115.03 -13.63,-10.14 -18.5,-11.37 -22.29,-20.74 -93.95,-35.02 -161.1,-113.72 -378.24,-100.69 -204.3,12.26 -260.27,90.95 -340.8,130.42zm1220.46 1891.48c0.37,7.17 0.68,14.37 0.92,21.6l35.16 0.1c-12.31,-6.86 -24.34,-14.1 -36.08,-21.7zm-917.68 -1830.39c-202,36.34 -377.05,233.42 -330.96,482.65 37.25,201.44 237.95,381.45 488.51,330.2 198.92,-40.69 372.07,-233.57 326.87,-482.29 -37.08,-204.04 -234.88,-375.45 -484.43,-330.56z"/>
  <path class="fil1" d="M3617.79 1262.17c-28.93,35.22 -54.6,50.14 -86.64,88.01 -152.14,179.76 -180.08,462.14 -61.72,668.99 63.08,110.23 81.46,110.12 149.47,179.26 14.92,15.16 3.83,0.66 12.99,16.08 -111.84,34.89 -220.98,105.76 -314.12,189.09 33,59.27 55.44,124.45 65,193.4l5.93 -6.9c23.01,-26.68 75.47,-69.08 109.77,-94.61 129.32,-96.23 288.63,-151.95 459.21,-161.45 260.37,-13.05 443.86,79.51 623.85,234.46 29.68,25.55 68.64,76.37 96.94,113.75 106.33,140.45 154.44,306.09 160.71,493l185.59 0.54c0.42,-82.6 -9.17,-158.66 -26.94,-236.56 -16.99,-74.47 -47.41,-132.59 -65.96,-196.95 -14.62,-16.88 -34.19,-63.24 -47.51,-86.16 -38.7,-66.54 -66.4,-99.97 -114.3,-158.56 -79.67,-97.45 -267.58,-238.67 -410.15,-283l23.31 -25.06c7.1,-6.19 15.69,-14.05 22.34,-20.47 226.93,-219.02 255.33,-538.46 68.26,-800.82 -25.73,-36.09 -79.34,-88.71 -114.7,-115.03 -13.63,-10.14 -18.5,-11.37 -22.29,-20.74 -93.95,-35.02 -161.1,-113.72 -378.24,-100.69 -204.3,12.26 -260.27,90.95 -340.8,130.42zm-536.78 1913.54l71.62 -0.03c0.56,-16.53 1.42,-32.58 2.54,-48.22 -23.39,17.67 -48.16,33.81 -74.15,48.26zm839.56 -1852.45c-202,36.34 -377.05,233.42 -330.96,482.65 37.25,201.44 237.95,381.45 488.51,330.2 198.92,-40.69 372.07,-233.57 326.87,-482.29 -37.08,-204.04 -234.88,-375.45 -484.43,-330.56z"/>
 </g>
</svg>
